Coordinates
version=1
nRows=16
nColumns=22
inDegrees=yes

Units are S.I. units (second, meters, Newtons, ...)
If the header above contains a line with 'inDegrees', this indicates whether rotational values are in degrees (yes) or radians (no).

endheader
time	pelvis_tilt	pelvis_list	pelvis_rotation	pelvis_tx	pelvis_ty	pelvis_tz	hip_flexion_r	hip_adduction_r	hip_rotation_r	knee_angle_r	ankle_angle_r	subtalar_angle_r	hip_flexion_l	hip_adduction_l	hip_rotation_l	knee_angle_l	ankle_angle_l	subtalar_angle_l	lumbar_extension	lumbar_bending	lumbar_rotation
      2.80000000	      5.29928546	     -3.33168279	    -25.51634044	     -0.41078347	      0.90535323	     -0.52368139	    -14.99665486	      8.85170583	     13.16215279	    -30.06297627	     13.45218415	     -6.34982109	     23.53641777	     -3.84124529	      3.92855094	    -25.32579706	      8.49514698	     -3.01859041	    -13.62692234	      1.08694763	     -7.49476320
      2.81000000	      5.33241332	     -3.06156938	    -25.97871727	     -0.39886609	      0.90587414	     -0.51987036	    -14.58644755	      8.40830797	     12.89653877	    -31.85436537	     11.17967572	     -5.00562074	     23.46175707	     -3.28833102	      4.43901038	    -26.67581319	      8.27128612	     -3.86001053	    -13.31959013	      0.79673684	     -7.57495442
      2.82000000	      5.41646809	     -2.83423056	    -26.45251024	     -0.38698452	      0.90674635	     -0.51587354	    -14.08740737	      7.96878640	     12.50410294	    -33.80457946	      8.58380415	     -3.66134015	     23.23202304	     -2.82679637	      4.67787371	    -27.88880370	      8.31876633	     -4.68052963	    -13.08678399	      0.51787303	     -7.66380047
      2.83000000	      5.55479233	     -2.64077141	    -26.95132371	     -0.37520858	      0.90794753	     -0.51171588	    -13.47958015	      7.51091690	     11.99231516	    -35.92882389	      5.75786620	     -2.34820868	     22.82277963	     -2.43968826	      4.68672216	    -28.91658058	      8.63234419	     -5.47975567	    -12.93570788	      0.23973774	     -7.75748347
      2.84000000	      5.72695855	     -2.48903846	    -27.47228545	     -0.36361991	      0.90941501	     -0.50746743	    -12.73045578	      7.04213390	     11.36299302	    -38.23649886	      2.79770303	     -1.17276653	     22.25572801	     -2.12945583	      4.50972328	    -29.75391338	      9.16053977	     -6.24282658	    -12.86397836	     -0.00917054	     -7.88456250
      2.85000000	      5.91918651	     -2.35217906	    -28.04337100	     -0.35230964	      0.91107702	     -0.50315594	    -11.79975811	      6.53646028	     10.67382660	    -40.74027938	     -0.13164311	     -0.12563091	     21.54445218	     -1.86256479	      4.20979326	    -30.37590920	      9.88528122	     -6.96943001	    -12.85124722	     -0.25123950	     -7.99967102
      2.86000000	      6.09775233	     -2.24541356	    -28.66051715	     -0.34135642	      0.91285262	     -0.49882062	    -10.66658683	      6.03014722	      9.96299849	    -43.41229917	     -2.92136745	      0.69058827	     20.74995392	     -1.67191438	      3.75858744	    -30.82791159	     10.70089007	     -7.61326422	    -12.88089190	     -0.44621198	     -8.16686033
      2.87000000	      6.24565617	     -2.14497056	    -29.35346738	     -0.33081605	      0.91468145	     -0.49447811	     -9.30180752	      5.50307930	      9.27268041	    -46.23318279	     -5.39946881	      1.33325971	     19.88161719	     -1.53384489	      3.20780394	    -31.07213388	     11.57077294	     -8.15048460	    -12.92688690	     -0.60963525	     -8.31484523
      2.88000000	      6.34987274	     -2.04373248	    -30.12458967	     -0.32072372	      0.91649946	     -0.49012690	     -7.71151877	      4.97450437	      8.65259117	    -49.14095666	     -7.45004061	      1.85168190	     18.98779569	     -1.45254829	      2.52568461	    -31.15784199	     12.44623325	     -8.57212551	    -12.97216766	     -0.74114379	     -8.47548996
      2.89000000	      6.40840694	     -1.93350089	    -30.97349369	     -0.31105955	      0.91828734	     -0.48576959	     -5.91641310	      4.45435181	      8.12617341	    -52.06340788	     -8.97601441	      2.27965627	     18.07541985	     -1.41586201	      1.72096630	    -31.08582013	     13.28835280	     -8.86339671	    -13.00440989	     -0.84676371	     -8.63823581
      2.90000000	      6.42227877	     -1.81437098	    -31.89439745	     -0.30180184	      0.92004233	     -0.48140240	     -3.95007614	      3.96125852	      7.70159878	    -54.91881638	     -9.91838226	      2.60668046	     17.15408197	     -1.41978608	      0.79365237	    -30.87298875	     14.05894233	     -9.03570004	    -13.01865148	     -0.92535661	     -8.80869145
      2.91000000	      6.42720980	     -1.69438439	    -32.87786802	     -0.29288714	      0.92182823	     -0.47701465	     -1.88748137	      3.49450073	      7.36547235	    -57.62532405	    -10.29361146	      2.74166136	     16.18412926	     -1.44500732	     -0.25836026	    -30.52139402	     14.71948329	     -9.07282972	    -13.04636335	     -0.99232893	     -8.95409903
      2.92000000	      6.36833345	     -1.56595679	    -33.87492173	     -0.28423501	      0.92354057	     -0.47263491	      0.28788537	      3.11063732	      7.09278503	    -60.11598745	    -10.14205558	      2.74181491	     15.24616391	     -1.48963191	     -1.34243190	    -30.07527996	     15.34898641	     -9.07528601	    -13.01427513	     -1.01295798	     -9.13553762
      2.93000000	      6.28606822	     -1.45558993	    -34.85360220	     -0.27575281	      0.92527620	     -0.46825978	      2.47680879	      2.80779545	      6.82747797	    -62.31408253	     -9.60654828	      2.51390616	     14.29045730	     -1.54828128	     -2.44997240	    -29.54441679	     15.89697306	     -9.01790702	    -12.97037280	     -0.98826849	     -9.34134649
      2.94000000	      6.16050883	     -1.36349169	    -35.76608031	     -0.26735542	      0.92700953	     -0.46388237	      4.65322463	      2.60663053	      6.51964068	    -64.16612470	     -8.81877146	      1.85754200	     13.33767434	     -1.61435178	     -3.48962436	    -28.93344168	     16.40149928	     -8.88214705	    -12.88479934	     -0.90284730	     -9.61524554
      2.95000000	      6.06685695	     -1.33456972	    -36.60524333	     -0.25897722	      0.92889351	     -0.45945615	      6.67619627	      2.48740603	      6.14787260	    -65.61941727	     -7.87499602	      1.18194383	     12.29300137	     -1.69426013	     -4.53977407	    -28.25515146	     16.78573692	     -8.71629278	    -12.85277084	     -0.77028945	     -9.93022166
